<?xml version="1.0"?>
<svg xmlns="http://www.w3.org/2000/svg" viewBox="0 0 24 24">
    <path style="line-height:normal;text-indent:0;text-align:start;text-decoration-line:none;text-decoration-style:solid;text-decoration-color:#000;text-transform:none;block-progression:tb;isolation:auto;mix-blend-mode:normal" d="M 4 2 L 4 16 L 6 16 L 6 4 L 19 4 L 19 10 L 21 10 L 21 2 L 4 2 z M 8 7 L 8 9 L 10 9 L 10 7 L 8 7 z M 11 7 L 11 9 L 17 9 L 17 7 L 11 7 z M 8 12 L 8 14 L 10 14 L 10 12 L 8 12 z M 14.199219 12 C 13.499219 12 13 12.499219 13 13.199219 L 13 14 L 14 14 C 14.4 16.1 15.7 17.399609 16.5 18.099609 C 15.7 18.799609 14.499609 20.2 14.099609 22 L 13 22 L 13 22.800781 C 13 23.500781 13.499219 24 14.199219 24 L 22.800781 24 C 23.500781 24 24 23.500781 24 22.800781 L 24 22 L 23 22 C 22.5 20.2 21.3 18.799609 20.5 18.099609 C 21.3 17.399609 22.6 16.1 23 14 L 24 14 L 24 13.199219 C 24 12.499219 23.500781 12 22.800781 12 L 14.199219 12 z M 15.199219 14 L 21.800781 14 C 21.200781 16.4 19.500391 17.5 19.400391 17.5 C 19.400391 17.5 18.600781 18 19.300781 18.5 C 19.900781 19 21.299219 20.1 21.699219 22 L 20.900391 22 C 20.200391 21 19.2 20 18.5 20 C 17.8 20 16.799609 21 16.099609 22 L 15.300781 22 C 15.800781 20.1 17.099219 19 17.699219 18.5 C 18.399219 18 17.599609 17.5 17.599609 17.5 C 17.499609 17.5 15.799219 16.4 15.199219 14 z M 17.300781 15 C 17.300781 15.5 18 16.800781 18.5 16.800781 C 19 16.800781 19.699219 15.5 19.699219 15 L 17.300781 15 z M 2 17 L 2 20 C 2 21.1 2.9 22 4 22 L 12 22 C 12.094 21.187 12.664063 20 12.664062 20 C 12.983063 19.279 13.375625 18.653766 13.765625 18.134766 C 13.510625 17.809766 13.258578 17.423 13.017578 17 L 2 17 z" font-weight="400" font-family="sans-serif" white-space="normal" overflow="visible"/>
</svg>
