{
  "accessors": [
    {
      "bufferView": 2,
      "componentType": 5126,
      "count": 140,
      "max": [
        2.0580399036407471,
        2.0578019618988037,
        0.20574299991130829
      ],
      "min": [
        -2.0580658912658691,
        -2.0583059787750244,
        0.14905700087547302
      ],
      "type": "VEC3"
    },
    {
      "bufferView": 2,
      "byteOffset": 1680,
      "componentType": 5126,
      "count": 140,
      "max": [
        0.98632234334945679,
        0.98631876707077026,
        0.5714792013168335
      ],
      "min": [
        -0.9863210916519165,
        -0.98632007837295532,
        0.15477143228054047
      ],
      "type": "VEC3"
    },
    {
      "bufferView": 3,
      "componentType": 5126,
      "count": 140,
      "max": [
        0.99999457597732544,
        0.99999803304672241,
        0.98765915632247925,
        1
      ],
      "min": [
        -0.98740309476852417,
        -0.99999731779098511,
        -0.98766082525253296,
        1
      ],
      "type": "VEC4"
    },
    {
      "bufferView": 1,
      "componentType": 5126,
      "count": 140,
      "max": [
        0.84172499179840088,
        0.98781001567840576
      ],
      "min": [
        0.027956999838352203,
        0.0024220000486820936
      ],
      "type": "VEC2"
    },
    {
      "bufferView": 0,
      "componentType": 5125,
      "count": 264,
      "max": [
        139
      ],
      "min": [
        0
      ],
      "type": "SCALAR"
    },
    {
      "bufferView": 2,
      "byteOffset": 3360,
      "componentType": 5126,
      "count": 229,
      "max": [
        3.41615891456604,
        4.4343700408935547,
        -0.096082001924514771
      ],
      "min": [
        -2.8314580917358398,
        -4.616121768951416,
        -1.7685489654541016
      ],
      "type": "VEC3"
    },
    {
      "bufferView": 2,
      "byteOffset": 6108,
      "componentType": 5126,
      "count": 229,
      "max": [
        0.0017839994980022311,
        0.0011349997948855162,
        1
      ],
      "min": [
        -0.0019880004692822695,
        -0.001265000319108367,
        0.99999725818634033
      ],
      "type": "VEC3"
    },
    {
      "bufferView": 3,
      "byteOffset": 2240,
      "componentType": 5126,
      "count": 229,
      "max": [
        1,
        0.91376471519470215,
        0.00034822404268197715,
        1
      ],
      "min": [
        -0.40630462765693665,
        -0.00010482914512977004,
        -0.000312380725517869,
        1
      ],
      "type": "VEC4"
    },
    {
      "bufferView": 1,
      "byteOffset": 1120,
      "componentType": 5126,
      "count": 229,
      "max": [
        0.69044202566146851,
        0.49510300159454346
      ],
      "min": [
        0.49976798892021179,
        0.11441999673843384
      ],
      "type": "VEC2"
    },
    {
      "bufferView": 0,
      "byteOffset": 1056,
      "componentType": 5125,
      "count": 372,
      "max": [
        228
      ],
      "min": [
        0
      ],
      "type": "SCALAR"
    },
    {
      "bufferView": 2,
      "byteOffset": 8856,
      "componentType": 5126,
      "count": 24182,
      "max": [
        3.4397830963134766,
        4.8907718658447266,
        0.72238999605178833
      ],
      "min": [
        -3.6374890804290771,
        -6.792722225189209,
        -2.4046080112457275
      ],
      "type": "VEC3"
    },
    {
      "bufferView": 2,
      "byteOffset": 299040,
      "componentType": 5126,
      "count": 24182,
      "max": [
        1,
        1,
        1
      ],
      "min": [
        -1,
        -1,
        -1
      ],
      "type": "VEC3"
    },
    {
      "bufferView": 3,
      "byteOffset": 5904,
      "componentType": 5126,
      "count": 24182,
      "max": [
        1,
        1,
        1,
        1
      ],
      "min": [
        -0.96576815843582153,
        -1,
        -1,
        -1
      ],
      "type": "VEC4"
    },
    {
      "bufferView": 1,
      "byteOffset": 2952,
      "componentType": 5126,
      "count": 24182,
      "max": [
        0.99514400959014893,
        0.99514597654342651
      ],
      "min": [
        0.0024220000486820936,
        0.0024220000486820936
      ],
      "type": "VEC2"
    },
    {
      "bufferView": 0,
      "byteOffset": 2544,
      "componentType": 5125,
      "count": 61482,
      "max": [
        24181
      ],
      "min": [
        0
      ],
      "type": "SCALAR"
    },
    {
      "bufferView": 2,
      "byteOffset": 589224,
      "componentType": 5126,
      "count": 346,
      "max": [
        1.0104550123214722,
        1.0102139711380005,
        1.3292139768600464
      ],
      "min": [
        -1.0104789733886719,
        -3.0612630844116211,
        0.23983199894428253
      ],
      "type": "VEC3"
    },
    {
      "bufferView": 2,
      "byteOffset": 593376,
      "componentType": 5126,
      "count": 346,
      "max": [
        1,
        1,
        1
      ],
      "min": [
        -1,
        -1,
        -0.11170394718647003
      ],
      "type": "VEC3"
    },
    {
      "bufferView": 3,
      "byteOffset": 392816,
      "componentType": 5126,
      "count": 346,
      "max": [
        1,
        0.68211811780929565,
        1,
        1
      ],
      "min": [
        -0.89095652103424072,
        -0.71090525388717651,
        -1,
        1
      ],
      "type": "VEC4"
    },
    {
      "bufferView": 1,
      "byteOffset": 196408,
      "componentType": 5126,
      "count": 346,
      "max": [
        0.90588498115539551,
        0.99471598863601685
      ],
      "min": [
        0.04761900007724762,
        0.0024220000486820936
      ],
      "type": "VEC2"
    },
    {
      "bufferView": 0,
      "byteOffset": 248472,
      "componentType": 5125,
      "count": 1440,
      "max": [
        345
      ],
      "min": [
        0
      ],
      "type": "SCALAR"
    }
  ],
  "asset": {
    "extras": {
      "author": "TonyMalin (https://sketchfab.com/kamilot.2292)",
      "license": "CC-BY-NC-4.0 (http://creativecommons.org/licenses/by-nc/4.0/)",
      "source": "https://sketchfab.com/models/670778920a1f48c5bd7900ad98a09a52",
      "title": "Steampunk book"
    },
    "generator": "Sketchfab-3.23.2",
    "version": "2.0"
  },
  "bufferViews": [
    {
      "buffer": 0,
      "byteLength": 254232,
      "byteOffset": 0,
      "name": "floatBufferViews",
      "target": 34963
    },
    {
      "buffer": 0,
      "byteLength": 199176,
      "byteOffset": 254232,
      "byteStride": 8,
      "name": "floatBufferViews",
      "target": 34962
    },
    {
      "buffer": 0,
      "byteLength": 597528,
      "byteOffset": 453408,
      "byteStride": 12,
      "name": "floatBufferViews",
      "target": 34962
    },
    {
      "buffer": 0,
      "byteLength": 398352,
      "byteOffset": 1050936,
      "byteStride": 16,
      "name": "floatBufferViews",
      "target": 34962
    }
  ],
  "buffers": [
    {
      "byteLength": 1449288,
      "uri": "scene.bin"
    }
  ],
  "images": [
    {
      "uri": "textures/lambert6SG_emissive.png"
    },
    {
      "uri": "textures/lambert6SG_normal.png"
    },
    {
      "uri": "textures/lambert6SG_metallicRoughness.png"
    },
    {
      "uri": "textures/lambert6SG_baseColor.png"
    },
    {
      "uri": "textures/lambert7SG_baseColor.png"
    },
    {
      "uri": "textures/lambert7SG_normal.png"
    }
  ],
  "materials": [
    {
      "doubleSided": true,
      "emissiveFactor": [
        1,
        1,
        1
      ],
      "emissiveTexture": {
        "index": 0,
        "texCoord": 0
      },
      "name": "lambert6SG",
      "normalTexture": {
        "index": 1,
        "scale": 1,
        "texCoord": 0
      },
      "pbrMetallicRoughness": {
        "baseColorFactor": [
          1,
          1,
          1,
          1
        ],
        "baseColorTexture": {
          "index": 3,
          "texCoord": 0
        },
        "metallicFactor": 1,
        "metallicRoughnessTexture": {
          "index": 2,
          "texCoord": 0
        },
        "roughnessFactor": 1
      }
    },
    {
      "alphaMode": "BLEND",
      "doubleSided": true,
      "emissiveFactor": [
        0,
        0,
        0
      ],
      "name": "lambert7SG",
      "normalTexture": {
        "index": 5,
        "scale": 1,
        "texCoord": 0
      },
      "pbrMetallicRoughness": {
        "baseColorFactor": [
          1,
          1,
          1,
          0.14805640240000001
        ],
        "baseColorTexture": {
          "index": 4,
          "texCoord": 0
        },
        "metallicFactor": 0.28830030490000003,
        "roughnessFactor": 0.14195884149999999
      }
    }
  ],
  "meshes": [
    {
      "primitives": [
        {
          "attributes": {
            "NORMAL": 1,
            "POSITION": 0,
            "TANGENT": 2,
            "TEXCOORD_0": 3
          },
          "indices": 4,
          "material": 0,
          "mode": 4
        }
      ]
    },
    {
      "primitives": [
        {
          "attributes": {
            "NORMAL": 6,
            "POSITION": 5,
            "TANGENT": 7,
            "TEXCOORD_0": 8
          },
          "indices": 9,
          "material": 0,
          "mode": 4
        }
      ]
    },
    {
      "primitives": [
        {
          "attributes": {
            "NORMAL": 11,
            "POSITION": 10,
            "TANGENT": 12,
            "TEXCOORD_0": 13
          },
          "indices": 14,
          "material": 0,
          "mode": 4
        }
      ]
    },
    {
      "primitives": [
        {
          "attributes": {
            "NORMAL": 16,
            "POSITION": 15,
            "TANGENT": 17,
            "TEXCOORD_0": 18
          },
          "indices": 19,
          "material": 1,
          "mode": 4
        }
      ]
    }
  ],
  "nodes": [
    {
      "children": [
        1
      ],
      "name": "RootNode (gltf orientation matrix)",
      "rotation": [
        -0.70710678118654746,
        -0,
        -0,
        0.70710678118654757
      ]
    },
    {
      "children": [
        2
      ],
      "name": "RootNode (model correction matrix)"
    },
    {
      "children": [
        3,
        4,
        5,
        6
      ],
      "name": "book2.obj.cleaner.materialmerger.gles"
    },
    {
      "mesh": 0,
      "name": ""
    },
    {
      "mesh": 1,
      "name": ""
    },
    {
      "mesh": 2,
      "name": ""
    },
    {
      "mesh": 3,
      "name": ""
    }
  ],
  "samplers": [
    {
      "magFilter": 9729,
      "minFilter": 9987,
      "wrapS": 10497,
      "wrapT": 10497
    }
  ],
  "scene": 0,
  "scenes": [
    {
      "name": "OSG_Scene",
      "nodes": [
        0
      ]
    }
  ],
  "textures": [
    {
      "sampler": 0,
      "source": 0
    },
    {
      "sampler": 0,
      "source": 1
    },
    {
      "sampler": 0,
      "source": 2
    },
    {
      "sampler": 0,
      "source": 3
    },
    {
      "sampler": 0,
      "source": 4
    },
    {
      "sampler": 0,
      "source": 5
    }
  ]
}

