{
  "accessors": [
    {
      "bufferView": 1,
      "componentType": 5126,
      "count": 12120,
      "max": [
        0.99407398700714111,
        0.34480801224708557,
        3.9521870613098145
      ],
      "min": [
        -1.0184570550918579,
        -0.43674799799919128,
        2.1390120983123779
      ],
      "type": "VEC3"
    },
    {
      "bufferView": 1,
      "byteOffset": 145440,
      "componentType": 5126,
      "count": 12120,
      "max": [
        0.99990063905715942,
        0.99995052814483643,
        0.99987465143203735
      ],
      "min": [
        -0.99996364116668701,
        -0.99997788667678833,
        -0.99998223781585693
      ],
      "type": "VEC3"
    },
    {
      "bufferView": 2,
      "componentType": 5126,
      "count": 12120,
      "max": [
        0.99997347593307495,
        0.99983906745910645,
        0.99999958276748657,
        1
      ],
      "min": [
        -0.99323803186416626,
        -0.99987882375717163,
        -0.99285155534744263,
        1
      ],
      "type": "VEC4"
    },
    {
      "bufferView": 0,
      "componentType": 5125,
      "count": 65232,
      "max": [
        12119
      ],
      "min": [
        0
      ],
      "type": "SCALAR"
    }
  ],
  "asset": {
    "extras": {
      "author": "123muse (https://sketchfab.com/123muse)",
      "license": "CC-BY-4.0 (http://creativecommons.org/licenses/by/4.0/)",
      "source": "https://sketchfab.com/models/3ae3b153415d4987b171a08aec95ddc9",
      "title": "Tshirt model"
    },
    "generator": "Sketchfab-3.18.5",
    "version": "2.0"
  },
  "bufferViews": [
    {
      "buffer": 0,
      "byteLength": 260928,
      "byteOffset": 0,
      "name": "floatBufferViews",
      "target": 34963
    },
    {
      "buffer": 0,
      "byteLength": 290880,
      "byteOffset": 260928,
      "byteStride": 12,
      "name": "floatBufferViews",
      "target": 34962
    },
    {
      "buffer": 0,
      "byteLength": 193920,
      "byteOffset": 551808,
      "byteStride": 16,
      "name": "floatBufferViews",
      "target": 34962
    }
  ],
  "buffers": [
    {
      "byteLength": 745728,
      "uri": "scene.bin"
    }
  ],
  "materials": [
    {
      "doubleSided": true,
      "emissiveFactor": [
        0,
        0,
        0
      ],
      "name": "22_GOREPORT_1_20_30",
      "pbrMetallicRoughness": {
        "baseColorFactor": [
          0.5,
          0.5,
          0.5,
          1
        ],
        "metallicFactor": 0,
        "roughnessFactor": 0.59999999999999998
      }
    }
  ],
  "meshes": [
    {
      "primitives": [
        {
          "attributes": {
            "NORMAL": 1,
            "POSITION": 0,
            "TANGENT": 2
          },
          "indices": 3,
          "material": 0,
          "mode": 4
        }
      ]
    }
  ],
  "nodes": [
    {
      "children": [
        1
      ],
      "name": "RootNode (gltf orientation matrix)",
      "rotation": [
        -0.70710678118654746,
        -0,
        -0,
        0.70710678118654757
      ]
    },
    {
      "children": [
        2
      ],
      "name": "RootNode (model correction matrix)"
    },
    {
      "children": [
        3
      ],
      "name": "tshirt high poly.obj.cleaner.gles"
    },
    {
      "mesh": 0,
      "name": ""
    }
  ],
  "scene": 0,
  "scenes": [
    {
      "name": "OSG_Scene",
      "nodes": [
        0
      ]
    }
  ]
}

