{
  "accessors": [
    {
      "bufferView": 2,
      "componentType": 5126,
      "count": 251,
      "max": [
        50,
        49.901332855224609,
        58.192375183105469
      ],
      "min": [
        -50,
        -49.901344299316406,
        46.748344421386719
      ],
      "type": "VEC3"
    },
    {
      "bufferView": 2,
      "byteOffset": 3012,
      "componentType": 5126,
      "count": 251,
      "max": [
        0.33419239521026611,
        0.33353278040885925,
        -0.94250494241714478
      ],
      "min": [
        -0.3341921865940094,
        -0.33353278040885925,
        -1
      ],
      "type": "VEC3"
    },
    {
      "bufferView": 3,
      "componentType": 5126,
      "count": 251,
      "max": [
        -0.9425048828125,
        0.0066063357517123222,
        0.3341921865940094,
        1
      ],
      "min": [
        -1,
        -0.006124238483607769,
        -0.33419236540794373,
        1
      ],
      "type": "VEC4"
    },
    {
      "bufferView": 1,
      "componentType": 5126,
      "count": 251,
      "max": [
        1,
        1
      ],
      "min": [
        0,
        0
      ],
      "type": "VEC2"
    },
    {
      "bufferView": 0,
      "componentType": 5125,
      "count": 1350,
      "max": [
        250
      ],
      "min": [
        0
      ],
      "type": "SCALAR"
    },
    {
      "bufferView": 2,
      "byteOffset": 6024,
      "componentType": 5126,
      "count": 201,
      "max": [
        50,
        49.901332855224609,
        59.198753356933594
      ],
      "min": [
        -50,
        -49.901344299316406,
        46.748344421386719
      ],
      "type": "VEC3"
    },
    {
      "bufferView": 2,
      "byteOffset": 8436,
      "componentType": 5126,
      "count": 201,
      "max": [
        0.36655402183532715,
        0.36583074927330017,
        1
      ],
      "min": [
        -0.36655384302139282,
        -0.36583065986633301,
        0.93039673566818237
      ],
      "type": "VEC3"
    },
    {
      "bufferView": 3,
      "byteOffset": 4016,
      "componentType": 5126,
      "count": 201,
      "max": [
        1,
        0.0010139214573428035,
        0.36655381321907043,
        1
      ],
      "min": [
        0.93039685487747192,
        -0.0028062784112989902,
        -0.36655399203300476,
        1
      ],
      "type": "VEC4"
    },
    {
      "bufferView": 1,
      "byteOffset": 2008,
      "componentType": 5126,
      "count": 201,
      "max": [
        0.98076927661895752,
        0.98049020767211914
      ],
      "min": [
        0.019230753183364868,
        0.019509792327880859
      ],
      "type": "VEC2"
    },
    {
      "bufferView": 0,
      "byteOffset": 5400,
      "componentType": 5125,
      "count": 1050,
      "max": [
        200
      ],
      "min": [
        0
      ],
      "type": "SCALAR"
    }
  ],
  "asset": {
    "extras": {
      "author": "Veysel Gök (https://sketchfab.com/veysel.gok.vg)",
      "license": "CC-BY-4.0 (http://creativecommons.org/licenses/by/4.0/)",
      "source": "https://sketchfab.com/models/eb1aee472828453592c370414785bcac",
      "title": "Captain America - Shield"
    },
    "generator": "Sketchfab-3.20.7",
    "version": "2.0"
  },
  "bufferViews": [
    {
      "buffer": 0,
      "byteLength": 9600,
      "byteOffset": 0,
      "name": "floatBufferViews",
      "target": 34963
    },
    {
      "buffer": 0,
      "byteLength": 3616,
      "byteOffset": 9600,
      "byteStride": 8,
      "name": "floatBufferViews",
      "target": 34962
    },
    {
      "buffer": 0,
      "byteLength": 10848,
      "byteOffset": 13216,
      "byteStride": 12,
      "name": "floatBufferViews",
      "target": 34962
    },
    {
      "buffer": 0,
      "byteLength": 7232,
      "byteOffset": 24064,
      "byteStride": 16,
      "name": "floatBufferViews",
      "target": 34962
    }
  ],
  "buffers": [
    {
      "byteLength": 31296,
      "uri": "scene.bin"
    }
  ],
  "images": [
    {
      "uri": "textures/Material_25_baseColor.png"
    },
    {
      "uri": "textures/Material_37_baseColor.png"
    }
  ],
  "materials": [
    {
      "doubleSided": true,
      "emissiveFactor": [
        0,
        0,
        0
      ],
      "name": "Material_28",
      "pbrMetallicRoughness": {
        "baseColorFactor": [
          0.58799999999999997,
          0.58799999999999997,
          0.58799999999999997,
          1
        ],
        "metallicFactor": 0,
        "roughnessFactor": 0.20000000000000001
      }
    },
    {
      "doubleSided": true,
      "emissiveFactor": [
        0,
        0,
        0
      ],
      "name": "Material_37",
      "pbrMetallicRoughness": {
        "baseColorFactor": [
          1,
          1,
          1,
          1
        ],
        "baseColorTexture": {
          "index": 1,
          "texCoord": 0
        },
        "metallicFactor": 0.92000000000000004,
        "roughnessFactor": 0.20000000000000001
      }
    },
    {
      "doubleSided": true,
      "emissiveFactor": [
        0,
        0,
        0
      ],
      "name": "Material_25",
      "pbrMetallicRoughness": {
        "baseColorFactor": [
          1,
          1,
          1,
          1
        ],
        "baseColorTexture": {
          "index": 0,
          "texCoord": 0
        },
        "metallicFactor": 1,
        "roughnessFactor": 0.63
      }
    }
  ],
  "meshes": [
    {
      "name": "Cylinder001_Material #37_0",
      "primitives": [
        {
          "attributes": {
            "NORMAL": 1,
            "POSITION": 0,
            "TANGENT": 2,
            "TEXCOORD_0": 3
          },
          "indices": 4,
          "material": 1,
          "mode": 4
        }
      ]
    },
    {
      "name": "Cylinder001_Material #25_0",
      "primitives": [
        {
          "attributes": {
            "NORMAL": 6,
            "POSITION": 5,
            "TANGENT": 7,
            "TEXCOORD_0": 8
          },
          "indices": 9,
          "material": 2,
          "mode": 4
        }
      ]
    }
  ],
  "nodes": [
    {
      "children": [
        1
      ],
      "name": "RootNode (gltf orientation matrix)",
      "rotation": [
        -0.70710678118654746,
        -0,
        -0,
        0.70710678118654757
      ]
    },
    {
      "children": [
        2
      ],
      "name": "RootNode (model correction matrix)"
    },
    {
      "children": [
        3
      ],
      "matrix": [
        1,
        0,
        0,
        0,
        0,
        0,
        1,
        0,
        0,
        -1,
        0,
        0,
        0,
        0,
        0,
        1
      ],
      "name": "af663caf12164e6f9b07d11e15fbad9b.fbx"
    },
    {
      "children": [
        4
      ],
      "name": "RootNode"
    },
    {
      "children": [
        5,
        6,
        7
      ],
      "matrix": [
        1,
        0,
        0,
        0,
        0,
        2.2204460492503131e-16,
        -1,
        0,
        0,
        1,
        2.2204460492503131e-16,
        0,
        0,
        0,
        0,
        1
      ],
      "name": "Cylinder001"
    },
    {
      "name": "Cylinder001_Material #28_0"
    },
    {
      "mesh": 0,
      "name": "Cylinder001_Material #37_0"
    },
    {
      "mesh": 1,
      "name": "Cylinder001_Material #25_0"
    }
  ],
  "samplers": [
    {
      "magFilter": 9729,
      "minFilter": 9987,
      "wrapS": 10497,
      "wrapT": 10497
    }
  ],
  "scene": 0,
  "scenes": [
    {
      "name": "OSG_Scene",
      "nodes": [
        0
      ]
    }
  ],
  "textures": [
    {
      "sampler": 0,
      "source": 0
    },
    {
      "sampler": 0,
      "source": 1
    }
  ]
}

