{
  "accessors": [
    {
      "bufferView": 2,
      "componentType": 5126,
      "count": 65532,
      "max": [
        38.744163513183594,
        11.054169654846191,
        36.981864929199219
      ],
      "min": [
        3.9804229736328125,
        0.503997802734375,
        0.26842784881591797
      ],
      "type": "VEC3"
    },
    {
      "bufferView": 2,
      "byteOffset": 786384,
      "componentType": 5126,
      "count": 65532,
      "max": [
        0.99984568357467651,
        0.98870056867599487,
        0.99998944997787476
      ],
      "min": [
        -0.99829447269439697,
        -0.9999997615814209,
        -0.99987876415252686
      ],
      "type": "VEC3"
    },
    {
      "bufferView": 3,
      "componentType": 5126,
      "count": 65532,
      "max": [
        0.99750661849975586,
        0.98179411888122559,
        0.99893033504486084,
        1
      ],
      "min": [
        -0.98205810785293579,
        -0.9997783899307251,
        -0.99334472417831421,
        -1
      ],
      "type": "VEC4"
    },
    {
      "bufferView": 1,
      "componentType": 5126,
      "count": 65532,
      "max": [
        0.9939495325088501,
        0.99800229072570801
      ],
      "min": [
        0.0019798318389803171,
        0.017633259296417236
      ],
      "type": "VEC2"
    },
    {
      "bufferView": 0,
      "componentType": 5125,
      "count": 334632,
      "max": [
        65531
      ],
      "min": [
        0
      ],
      "type": "SCALAR"
    },
    {
      "bufferView": 2,
      "byteOffset": 1572768,
      "componentType": 5126,
      "count": 42780,
      "max": [
        37.45489501953125,
        11.054169654846191,
        36.806865692138672
      ],
      "min": [
        3.9804229736328125,
        0.53844451904296875,
        0.18489456176757812
      ],
      "type": "VEC3"
    },
    {
      "bufferView": 2,
      "byteOffset": 2086128,
      "componentType": 5126,
      "count": 42780,
      "max": [
        0.99996340274810791,
        0.90480846166610718,
        0.99965107440948486
      ],
      "min": [
        -0.98284929990768433,
        -0.99999481439590454,
        -0.9989701509475708
      ],
      "type": "VEC3"
    },
    {
      "bufferView": 3,
      "byteOffset": 1048512,
      "componentType": 5126,
      "count": 42780,
      "max": [
        0.99665462970733643,
        0.98874920606613159,
        0.99996274709701538,
        1
      ],
      "min": [
        -0.99841278791427612,
        -0.9989323616027832,
        -0.99334472417831421,
        -1
      ],
      "type": "VEC4"
    },
    {
      "bufferView": 1,
      "byteOffset": 524256,
      "componentType": 5126,
      "count": 42780,
      "max": [
        0.984122633934021,
        0.99798405170440674
      ],
      "min": [
        0.0020272731781005859,
        0.022943973541259766
      ],
      "type": "VEC2"
    },
    {
      "bufferView": 0,
      "byteOffset": 1338528,
      "componentType": 5125,
      "count": 170649,
      "max": [
        42779
      ],
      "min": [
        0
      ],
      "type": "SCALAR"
    },
    {
      "bufferView": 2,
      "byteOffset": 2599488,
      "componentType": 5126,
      "count": 65532,
      "max": [
        29.350025177001953,
        11.101177215576172,
        34.29742431640625
      ],
      "min": [
        4.3294210433959961,
        0.70279788970947266,
        0
      ],
      "type": "VEC3"
    },
    {
      "bufferView": 2,
      "byteOffset": 3385872,
      "componentType": 5126,
      "count": 65532,
      "max": [
        0.96196097135543823,
        0.82739365100860596,
        0.99992716312408447
      ],
      "min": [
        -0.99982768297195435,
        -0.9999997615814209,
        -0.99934548139572144
      ],
      "type": "VEC3"
    },
    {
      "bufferView": 3,
      "byteOffset": 1732992,
      "componentType": 5126,
      "count": 65532,
      "max": [
        0.99997138977050781,
        0.93381881713867188,
        0.9926801323890686,
        1
      ],
      "min": [
        -0.99999892711639404,
        -0.97955453395843506,
        -0.99995523691177368,
        -1
      ],
      "type": "VEC4"
    },
    {
      "bufferView": 1,
      "byteOffset": 866496,
      "componentType": 5126,
      "count": 65532,
      "max": [
        0.95453476905822754,
        0.99803930521011353
      ],
      "min": [
        0.0020914375782012939,
        0.019463539123535156
      ],
      "type": "VEC2"
    },
    {
      "bufferView": 0,
      "byteOffset": 2021124,
      "componentType": 5125,
      "count": 378612,
      "max": [
        65531
      ],
      "min": [
        0
      ],
      "type": "SCALAR"
    },
    {
      "bufferView": 2,
      "byteOffset": 4172256,
      "componentType": 5126,
      "count": 4778,
      "max": [
        29.114839553833008,
        11.101174354553223,
        34.006359100341797
      ],
      "min": [
        4.4193620681762695,
        0.95734214782714844,
        0.064483642578125
      ],
      "type": "VEC3"
    },
    {
      "bufferView": 2,
      "byteOffset": 4229592,
      "componentType": 5126,
      "count": 4778,
      "max": [
        0.92515510320663452,
        0.67015737295150757,
        0.99927771091461182
      ],
      "min": [
        -0.99822551012039185,
        -0.99999880790710449,
        -0.99934548139572144
      ],
      "type": "VEC3"
    },
    {
      "bufferView": 3,
      "byteOffset": 2781504,
      "componentType": 5126,
      "count": 4778,
      "max": [
        0.99426257610321045,
        0.93539094924926758,
        0.94418638944625854,
        1
      ],
      "min": [
        -0.99999868869781494,
        -0.8898424506187439,
        -0.99993741512298584,
        -1
      ],
      "type": "VEC4"
    },
    {
      "bufferView": 1,
      "byteOffset": 1390752,
      "componentType": 5126,
      "count": 4778,
      "max": [
        0.94929659366607666,
        0.99394094944000244
      ],
      "min": [
        0.0047042295336723328,
        0.03237074613571167
      ],
      "type": "VEC2"
    },
    {
      "bufferView": 0,
      "byteOffset": 3535572,
      "componentType": 5125,
      "count": 6786,
      "max": [
        4777
      ],
      "min": [
        0
      ],
      "type": "SCALAR"
    },
    {
      "bufferView": 2,
      "byteOffset": 4286928,
      "componentType": 5126,
      "count": 53289,
      "max": [
        49.432014465332031,
        10.812063217163086,
        35.202720642089844
      ],
      "min": [
        0.30555915832519531,
        0.28259086608886719,
        6.3415508270263672
      ],
      "type": "VEC3"
    },
    {
      "bufferView": 2,
      "byteOffset": 4926396,
      "componentType": 5126,
      "count": 53289,
      "max": [
        0.99999207258224487,
        0.9999271035194397,
        0.99997705221176147
      ],
      "min": [
        -0.99984651803970337,
        -0.99999988079071045,
        -0.99999499320983887
      ],
      "type": "VEC3"
    },
    {
      "bufferView": 3,
      "byteOffset": 2857952,
      "componentType": 5126,
      "count": 53289,
      "max": [
        0.99999833106994629,
        0.81099802255630493,
        0.99993664026260376,
        1
      ],
      "min": [
        -0.99996381998062134,
        -0.96678483486175537,
        -0.99997800588607788,
        -1
      ],
      "type": "VEC4"
    },
    {
      "bufferView": 1,
      "byteOffset": 1428976,
      "componentType": 5126,
      "count": 53289,
      "max": [
        0.99445039033889771,
        0.99804675579071045
      ],
      "min": [
        0.001425268012098968,
        0.026026725769042969
      ],
      "type": "VEC2"
    },
    {
      "bufferView": 0,
      "byteOffset": 3562716,
      "componentType": 5125,
      "count": 308019,
      "max": [
        53288
      ],
      "min": [
        0
      ],
      "type": "SCALAR"
    },
    {
      "bufferView": 2,
      "byteOffset": 5565864,
      "componentType": 5126,
      "count": 65532,
      "max": [
        34.631805419921875,
        11.000062942504883,
        37.796295166015625
      ],
      "min": [
        0,
        0,
        1.331751823425293
      ],
      "type": "VEC3"
    },
    {
      "bufferView": 2,
      "byteOffset": 6352248,
      "componentType": 5126,
      "count": 65532,
      "max": [
        0.99270808696746826,
        0.91414046287536621,
        0.99980878829956055
      ],
      "min": [
        -0.99996882677078247,
        -0.99999964237213135,
        -0.99998217821121216
      ],
      "type": "VEC3"
    },
    {
      "bufferView": 3,
      "byteOffset": 3710576,
      "componentType": 5126,
      "count": 65532,
      "max": [
        0.99999427795410156,
        0.95441460609436035,
        0.9482187032699585,
        1
      ],
      "min": [
        -0.99199974536895752,
        -0.98861443996429443,
        -0.99944388866424561,
        -1
      ],
      "type": "VEC4"
    },
    {
      "bufferView": 1,
      "byteOffset": 1855288,
      "componentType": 5126,
      "count": 65532,
      "max": [
        0.98475754261016846,
        0.99803555011749268
      ],
      "min": [
        0.0020161299034953117,
        0.015274524688720703
      ],
      "type": "VEC2"
    },
    {
      "bufferView": 0,
      "byteOffset": 4794792,
      "componentType": 5125,
      "count": 357603,
      "max": [
        65531
      ],
      "min": [
        0
      ],
      "type": "SCALAR"
    },
    {
      "bufferView": 2,
      "byteOffset": 7138632,
      "componentType": 5126,
      "count": 16081,
      "max": [
        34.2445068359375,
        10.964683532714844,
        37.801158905029297
      ],
      "min": [
        0.030002593994140625,
        0.001209259033203125,
        2.1120738983154297
      ],
      "type": "VEC3"
    },
    {
      "bufferView": 2,
      "byteOffset": 7331604,
      "componentType": 5126,
      "count": 16081,
      "max": [
        0.99158561229705811,
        0.91414046287536621,
        0.9999203085899353
      ],
      "min": [
        -0.99991291761398315,
        -0.99999672174453735,
        -0.99955952167510986
      ],
      "type": "VEC3"
    },
    {
      "bufferView": 3,
      "byteOffset": 4759088,
      "componentType": 5126,
      "count": 16081,
      "max": [
        0.99998927116394043,
        0.9274451732635498,
        0.86379605531692505,
        1
      ],
      "min": [
        -0.99445056915283203,
        -0.9624474048614502,
        -0.99400603771209717,
        -1
      ],
      "type": "VEC4"
    },
    {
      "bufferView": 1,
      "byteOffset": 2379544,
      "componentType": 5126,
      "count": 16081,
      "max": [
        0.9818422794342041,
        0.99500489234924316
      ],
      "min": [
        0.0034607276320457458,
        0.028552770614624023
      ],
      "type": "VEC2"
    },
    {
      "bufferView": 0,
      "byteOffset": 6225204,
      "componentType": 5125,
      "count": 40926,
      "max": [
        16080
      ],
      "min": [
        0
      ],
      "type": "SCALAR"
    }
  ],
  "asset": {
    "extras": {
      "author": "Steren Giannini (https://sketchfab.com/steren)",
      "license": "CC-BY-4.0 (http://creativecommons.org/licenses/by/4.0/)",
      "source": "https://sketchfab.com/models/c4a08023cd7545178581dcec3d4668e5",
      "title": "Timberland boots"
    },
    "generator": "Sketchfab-3.18.5",
    "version": "2.0"
  },
  "bufferViews": [
    {
      "buffer": 0,
      "byteLength": 6388908,
      "byteOffset": 0,
      "name": "floatBufferViews",
      "target": 34963
    },
    {
      "buffer": 0,
      "byteLength": 2508192,
      "byteOffset": 6388908,
      "byteStride": 8,
      "name": "floatBufferViews",
      "target": 34962
    },
    {
      "buffer": 0,
      "byteLength": 7524576,
      "byteOffset": 8897100,
      "byteStride": 12,
      "name": "floatBufferViews",
      "target": 34962
    },
    {
      "buffer": 0,
      "byteLength": 5016384,
      "byteOffset": 16421676,
      "byteStride": 16,
      "name": "floatBufferViews",
      "target": 34962
    }
  ],
  "buffers": [
    {
      "byteLength": 21438060,
      "uri": "scene.bin"
    }
  ],
  "images": [
    {
      "uri": "textures/Texture_3_baseColor.jpeg"
    },
    {
      "uri": "textures/Texture_0_baseColor.jpeg"
    },
    {
      "uri": "textures/Texture_1_baseColor.jpeg"
    },
    {
      "uri": "textures/Texture_2_baseColor.jpeg"
    }
  ],
  "materials": [
    {
      "doubleSided": true,
      "emissiveFactor": [
        0,
        0,
        0
      ],
      "name": "Texture_0",
      "pbrMetallicRoughness": {
        "baseColorFactor": [
          1,
          1,
          1,
          1
        ],
        "baseColorTexture": {
          "index": 1,
          "texCoord": 0
        },
        "metallicFactor": 0,
        "roughnessFactor": 0.59999999999999998
      }
    },
    {
      "doubleSided": true,
      "emissiveFactor": [
        0,
        0,
        0
      ],
      "name": "Texture_1",
      "pbrMetallicRoughness": {
        "baseColorFactor": [
          1,
          1,
          1,
          1
        ],
        "baseColorTexture": {
          "index": 2,
          "texCoord": 0
        },
        "metallicFactor": 0,
        "roughnessFactor": 0.59999999999999998
      }
    },
    {
      "doubleSided": true,
      "emissiveFactor": [
        0,
        0,
        0
      ],
      "name": "Texture_2",
      "pbrMetallicRoughness": {
        "baseColorFactor": [
          1,
          1,
          1,
          1
        ],
        "baseColorTexture": {
          "index": 3,
          "texCoord": 0
        },
        "metallicFactor": 0,
        "roughnessFactor": 0.59999999999999998
      }
    },
    {
      "doubleSided": true,
      "emissiveFactor": [
        0,
        0,
        0
      ],
      "name": "Texture_3",
      "pbrMetallicRoughness": {
        "baseColorFactor": [
          1,
          1,
          1,
          1
        ],
        "baseColorTexture": {
          "index": 0,
          "texCoord": 0
        },
        "metallicFactor": 0,
        "roughnessFactor": 0.59999999999999998
      }
    }
  ],
  "meshes": [
    {
      "primitives": [
        {
          "attributes": {
            "NORMAL": 1,
            "POSITION": 0,
            "TANGENT": 2,
            "TEXCOORD_0": 3
          },
          "indices": 4,
          "material": 0,
          "mode": 4
        }
      ]
    },
    {
      "primitives": [
        {
          "attributes": {
            "NORMAL": 6,
            "POSITION": 5,
            "TANGENT": 7,
            "TEXCOORD_0": 8
          },
          "indices": 9,
          "material": 0,
          "mode": 4
        }
      ]
    },
    {
      "primitives": [
        {
          "attributes": {
            "NORMAL": 11,
            "POSITION": 10,
            "TANGENT": 12,
            "TEXCOORD_0": 13
          },
          "indices": 14,
          "material": 1,
          "mode": 4
        }
      ]
    },
    {
      "primitives": [
        {
          "attributes": {
            "NORMAL": 16,
            "POSITION": 15,
            "TANGENT": 17,
            "TEXCOORD_0": 18
          },
          "indices": 19,
          "material": 1,
          "mode": 4
        }
      ]
    },
    {
      "primitives": [
        {
          "attributes": {
            "NORMAL": 21,
            "POSITION": 20,
            "TANGENT": 22,
            "TEXCOORD_0": 23
          },
          "indices": 24,
          "material": 2,
          "mode": 4
        }
      ]
    },
    {
      "primitives": [
        {
          "attributes": {
            "NORMAL": 26,
            "POSITION": 25,
            "TANGENT": 27,
            "TEXCOORD_0": 28
          },
          "indices": 29,
          "material": 3,
          "mode": 4
        }
      ]
    },
    {
      "primitives": [
        {
          "attributes": {
            "NORMAL": 31,
            "POSITION": 30,
            "TANGENT": 32,
            "TEXCOORD_0": 33
          },
          "indices": 34,
          "material": 3,
          "mode": 4
        }
      ]
    }
  ],
  "nodes": [
    {
      "children": [
        1
      ],
      "name": "RootNode (gltf orientation matrix)",
      "rotation": [
        -0.70710678118654746,
        -0,
        -0,
        0.70710678118654757
      ]
    },
    {
      "children": [
        2
      ],
      "matrix": [
        0,
        1,
        0,
        0,
        0,
        0,
        -1,
        0,
        -1,
        0,
        0,
        0,
        9.1361217498779297,
        -9.7127799987792969,
        -0.57665866613388062,
        1
      ],
      "name": "RootNode (model correction matrix)"
    },
    {
      "children": [
        3,
        4,
        5,
        6,
        7,
        8,
        9
      ],
      "matrix": [
        1,
        0,
        0,
        0,
        0,
        1,
        0,
        0,
        0,
        0,
        1,
        0,
        -18.160209655761719,
        -10.71211051940918,
        -16.183984756469727,
        1
      ],
      "name": "mesh.obj.cleaner.gles"
    },
    {
      "mesh": 0,
      "name": ""
    },
    {
      "mesh": 1,
      "name": ""
    },
    {
      "mesh": 2,
      "name": ""
    },
    {
      "mesh": 3,
      "name": ""
    },
    {
      "mesh": 4,
      "name": ""
    },
    {
      "mesh": 5,
      "name": ""
    },
    {
      "mesh": 6,
      "name": ""
    }
  ],
  "samplers": [
    {
      "magFilter": 9729,
      "minFilter": 9987,
      "wrapS": 10497,
      "wrapT": 10497
    }
  ],
  "scene": 0,
  "scenes": [
    {
      "name": "OSG_Scene",
      "nodes": [
        0
      ]
    }
  ],
  "textures": [
    {
      "sampler": 0,
      "source": 0
    },
    {
      "sampler": 0,
      "source": 1
    },
    {
      "sampler": 0,
      "source": 2
    },
    {
      "sampler": 0,
      "source": 3
    }
  ]
}

